# xmcd CD database file
#
# Track frame offsets:
#	150
#	7380
#	16284
#	25278
#	35360
#	48060
#	59192
#	68283
#	82392
#	92972
#	103145
#	115011
#	124191
#	139106
#
# Disc length: 1945 seconds
#
# Revision: 1
# Processed by: cddbd v1.5.2PL0 Copyright (c) Steve Scherf et al.
# Submitted via: CDex 1.70beta2
#
DISCID=c207970e
DTITLE=Time Life Music - Legends Of The Grand Ole Opry - Porter Wagoner Sings His Hits
DYEAR=2007
DGENRE=Country
TTITLE0=Come On In (And Make Yourself At Home)
TTITLE1=A Satisfied Mind
TTITLE2=Country Music Has Gome To Town
TTITLE3=I Thought I Heard You Call My Name
TTITLE4=What Would You Do? (If Jesus Came To Your House)
TTITLE5=Life Of The Party
TTITLE6=Another Day, Another Dollar
TTITLE7=Be Careful Of Stones That You Throw
TTITLE8=I've Enjoyed As Much Of This As I Can Stand
TTITLE9=I'll Go Down Swinging
TTITLE10=Green, Green Grass Of Home
TTITLE11=I'm Gonna Feed You Know
TTITLE12=Skid Row Joe
TTITLE13=Company's Comin'
EXTD=YEAR: 2007
EXTT0=
EXTT1=
EXTT2=
EXTT3=
EXTT4=
EXTT5=
EXTT6=
EXTT7=
EXTT8=
EXTT9=
EXTT10=
EXTT11=
EXTT12=
EXTT13=
PLAYORDER=
